<svg width="54" height="54" viewBox="0 0 54 54" fill="none" xmlns="http://www.w3.org/2000/svg">
<path fill-rule="evenodd" clip-rule="evenodd" d="M32.7062 2.29787C33.3363 2.29787 33.847 1.78348 33.847 1.14894C33.847 0.514397 33.3363 0 32.7062 0C32.0761 0 31.5654 0.514397 31.5654 1.14894C31.5654 1.78348 32.0761 2.29787 32.7062 2.29787ZM36.8921 3.82986C37.7322 3.82986 38.4132 3.144 38.4132 2.29794C38.4132 1.45189 37.7322 0.766027 36.8921 0.766027C36.052 0.766027 35.371 1.45189 35.371 2.29794C35.371 3.144 36.052 3.82986 36.8921 3.82986ZM30.8 10.3403C32.6902 10.3403 34.2225 8.79712 34.2225 6.8935C34.2225 4.98987 32.6902 3.44668 30.8 3.44668C28.9098 3.44668 27.3774 4.98987 27.3774 6.8935C27.3774 8.79712 28.9098 10.3403 30.8 10.3403ZM22.8196 50.1703C24.7098 50.1703 26.2421 48.6272 26.2421 46.7235C26.2421 44.8199 24.7098 43.2767 22.8196 43.2767C20.9294 43.2767 19.3971 44.8199 19.3971 46.7235C19.3971 48.6272 20.9294 50.1703 22.8196 50.1703ZM44.8746 46.7233C44.8746 48.6269 43.3423 50.1701 41.4521 50.1701C39.5619 50.1701 38.0296 48.6269 38.0296 46.7233C38.0296 44.8196 39.5619 43.2765 41.4521 43.2765C43.3423 43.2765 44.8746 44.8196 44.8746 46.7233ZM7.22811 44.4253C9.11831 44.4253 10.6506 42.8821 10.6506 40.9785C10.6506 39.0749 9.11831 37.5317 7.22811 37.5317C5.33791 37.5317 3.8056 39.0749 3.8056 40.9785C3.8056 42.8821 5.33791 44.4253 7.22811 44.4253ZM50.1967 12.6383C50.1967 14.5419 48.6644 16.0851 46.7742 16.0851C44.884 16.0851 43.3517 14.5419 43.3517 12.6383C43.3517 10.7347 44.884 9.1915 46.7742 9.1915C48.6644 9.1915 50.1967 10.7347 50.1967 12.6383ZM46.7742 34.4681C48.6644 34.4681 50.1967 32.9249 50.1967 31.0213C50.1967 29.1177 48.6644 27.5745 46.7742 27.5745C44.884 27.5745 43.3517 29.1177 43.3517 31.0213C43.3517 32.9249 44.884 34.4681 46.7742 34.4681ZM15.9726 6.89356C15.9726 8.79718 14.4403 10.3404 12.5501 10.3404C10.6599 10.3404 9.12756 8.79718 9.12756 6.89356C9.12756 4.98994 10.6599 3.44675 12.5501 3.44675C14.4403 3.44675 15.9726 4.98994 15.9726 6.89356ZM7.22811 26.0425C9.11831 26.0425 10.6506 24.4993 10.6506 22.5957C10.6506 20.6921 9.11831 19.1489 7.22811 19.1489C5.33791 19.1489 3.8056 20.6921 3.8056 22.5957C3.8056 24.4993 5.33791 26.0425 7.22811 26.0425ZM8.36895 11.8724C8.36895 13.1415 7.34741 14.1703 6.08728 14.1703C4.82714 14.1703 3.8056 13.1415 3.8056 11.8724C3.8056 10.6034 4.82714 9.57456 6.08728 9.57456C7.34741 9.57456 8.36895 10.6034 8.36895 11.8724ZM11.7869 18.7659C13.047 18.7659 14.0685 17.7371 14.0685 16.468C14.0685 15.1989 13.047 14.1701 11.7869 14.1701C10.5267 14.1701 9.50519 15.1989 9.50519 16.468C9.50519 17.7371 10.5267 18.7659 11.7869 18.7659ZM44.4914 6.12743C44.4914 7.39651 43.4698 8.4253 42.2097 8.4253C40.9496 8.4253 39.928 7.39651 39.928 6.12743C39.928 4.85835 40.9496 3.82955 42.2097 3.82955C43.4698 3.82955 44.4914 4.85835 44.4914 6.12743ZM42.2097 39.8299C43.4698 39.8299 44.4914 38.8011 44.4914 37.5321C44.4914 36.263 43.4698 35.2342 42.2097 35.2342C40.9496 35.2342 39.928 36.263 39.928 37.5321C39.928 38.8011 40.9496 39.8299 42.2097 39.8299ZM4.18475 17.2341C4.18475 18.0802 3.50372 18.766 2.66363 18.766C1.82354 18.766 1.14252 18.0802 1.14252 17.2341C1.14252 16.388 1.82354 15.7022 2.66363 15.7022C3.50372 15.7022 4.18475 16.388 4.18475 17.2341ZM13.3115 38.298C14.1515 38.298 14.8326 37.6122 14.8326 36.7661C14.8326 35.9201 14.1515 35.2342 13.3115 35.2342C12.4714 35.2342 11.7903 35.9201 11.7903 36.7661C11.7903 37.6122 12.4714 38.298 13.3115 38.298ZM42.2144 17.2341C42.2144 18.0802 41.5334 18.766 40.6933 18.766C39.8532 18.766 39.1722 18.0802 39.1722 17.2341C39.1722 16.388 39.8532 15.7022 40.6933 15.7022C41.5334 15.7022 42.2144 16.388 42.2144 17.2341ZM17.1127 53.2342C17.9528 53.2342 18.6338 52.5483 18.6338 51.7023C18.6338 50.8562 17.9528 50.1704 17.1127 50.1704C16.2726 50.1704 15.5916 50.8562 15.5916 51.7023C15.5916 52.5483 16.2726 53.2342 17.1127 53.2342ZM18.6338 13.0211C18.6338 13.8672 17.9528 14.553 17.1127 14.553C16.2726 14.553 15.5916 13.8672 15.5916 13.0211C15.5916 12.1751 16.2726 11.4892 17.1127 11.4892C17.9528 11.4892 18.6338 12.1751 18.6338 13.0211ZM38.0353 40.9785C38.0353 41.8246 37.3542 42.5105 36.5142 42.5105C35.6741 42.5105 34.993 41.8246 34.993 40.9785C34.993 40.1325 35.6741 39.4466 36.5142 39.4466C37.3542 39.4466 38.0353 40.1325 38.0353 40.9785ZM51.3366 38.298C52.1767 38.298 52.8577 37.6122 52.8577 36.7661C52.8577 35.9201 52.1767 35.2342 51.3366 35.2342C50.4965 35.2342 49.8155 35.9201 49.8155 36.7661C49.8155 37.6122 50.4965 38.298 51.3366 38.298ZM2.28167 21.4467C2.28167 22.0812 1.7709 22.5956 1.14084 22.5956C0.51077 22.5956 0 22.0812 0 21.4467C0 20.8122 0.51077 20.2978 1.14084 20.2978C1.7709 20.2978 2.28167 20.8122 2.28167 21.4467ZM11.793 33.3191C12.4231 33.3191 12.9338 32.8047 12.9338 32.1702C12.9338 31.5356 12.4231 31.0213 11.793 31.0213C11.1629 31.0213 10.6522 31.5356 10.6522 32.1702C10.6522 32.8047 11.1629 33.3191 11.793 33.3191ZM54 32.1704C54 32.805 53.4892 33.3194 52.8592 33.3194C52.2291 33.3194 51.7183 32.805 51.7183 32.1704C51.7183 31.5359 52.2291 31.0215 52.8592 31.0215C53.4892 31.0215 54 31.5359 54 32.1704ZM42.2114 22.5956C42.8415 22.5956 43.3522 22.0812 43.3522 21.4467C43.3522 20.8122 42.8415 20.2978 42.2114 20.2978C41.5813 20.2978 41.0706 20.8122 41.0706 21.4467C41.0706 22.0812 41.5813 22.5956 42.2114 22.5956ZM22.4346 52.8511C22.4346 53.4856 21.9239 54 21.2938 54C20.6637 54 20.153 53.4856 20.153 52.8511C20.153 52.2165 20.6637 51.7021 21.2938 51.7021C21.9239 51.7021 22.4346 52.2165 22.4346 52.8511ZM32.7062 43.6597C33.3363 43.6597 33.847 43.1453 33.847 42.5107C33.847 41.8762 33.3363 41.3618 32.7062 41.3618C32.0761 41.3618 31.5654 41.8762 31.5654 42.5107C31.5654 43.1453 32.0761 43.6597 32.7062 43.6597ZM22.4346 11.4893C22.4346 12.1238 21.9239 12.6382 21.2938 12.6382C20.6637 12.6382 20.153 12.1238 20.153 11.4893C20.153 10.8547 20.6637 10.3403 21.2938 10.3403C21.9239 10.3403 22.4346 10.8547 22.4346 11.4893ZM39.5564 11.8724C39.5564 13.1415 38.5348 14.1703 37.2747 14.1703C36.0146 14.1703 34.993 13.1415 34.993 11.8724C34.993 10.6034 36.0146 9.57456 37.2747 9.57456C38.5348 9.57456 39.5564 10.6034 39.5564 11.8724ZM47.5317 44.4257C48.7919 44.4257 49.8134 43.3969 49.8134 42.1278C49.8134 40.8588 48.7919 39.83 47.5317 39.83C46.2716 39.83 45.2501 40.8588 45.2501 42.1278C45.2501 43.3969 46.2716 44.4257 47.5317 44.4257ZM19.0123 42.1278C19.0123 43.3969 17.9907 44.4257 16.7306 44.4257C15.4705 44.4257 14.4489 43.3969 14.4489 42.1278C14.4489 40.8588 15.4705 39.83 16.7306 39.83C17.9907 39.83 19.0123 40.8588 19.0123 42.1278ZM11.7869 50.1703C13.047 50.1703 14.0685 49.1415 14.0685 47.8724C14.0685 46.6033 13.047 45.5745 11.7869 45.5745C10.5267 45.5745 9.50519 46.6033 9.50519 47.8724C9.50519 49.1415 10.5267 50.1703 11.7869 50.1703ZM25.4775 4.97885C25.4775 7.09399 23.775 8.80864 21.6747 8.80864C19.5745 8.80864 17.8719 7.09399 17.8719 4.97885C17.8719 2.86372 19.5745 1.14906 21.6747 1.14906C23.775 1.14906 25.4775 2.86372 25.4775 4.97885ZM32.3227 52.8509C34.423 52.8509 36.1255 51.1363 36.1255 49.0212C36.1255 46.906 34.423 45.1914 32.3227 45.1914C30.2225 45.1914 28.52 46.906 28.52 49.0212C28.52 51.1363 30.2225 52.8509 32.3227 52.8509ZM52.8556 21.8297C52.8556 23.9448 51.1531 25.6595 49.0528 25.6595C46.9526 25.6595 45.2501 23.9448 45.2501 21.8297C45.2501 19.7146 46.9526 17.9999 49.0528 17.9999C51.1531 17.9999 52.8556 19.7146 52.8556 21.8297ZM4.94531 36.0001C7.04553 36.0001 8.74809 34.2855 8.74809 32.1704C8.74809 30.0552 7.04553 28.3406 4.94531 28.3406C2.84508 28.3406 1.14252 30.0552 1.14252 32.1704C1.14252 34.2855 2.84508 36.0001 4.94531 36.0001Z" fill="url(#paint0_linear_1733_24225)"/>
<defs>
<linearGradient id="paint0_linear_1733_24225" x1="46.4701" y1="4.05002" x2="-4.33903" y2="17.5859" gradientUnits="userSpaceOnUse">
<stop stop-color="#694BFF"/>
<stop offset="0.490872" stop-color="#09DEFF" stop-opacity="0.85"/>
<stop offset="0.952221" stop-color="#FF37FF"/>
</linearGradient>
</defs>
</svg>
